HIERARCHY
ROOT joint_Root
{
	OFFSET 0.0 0.0 0.0
	CHANNELS 6 Xposition Yposition Zposition Zrotation Xrotation Yrotation 
	JOINT Hips
	{
		OFFSET 4.5925 91.4895 -427.239
		CHANNELS 6 Xposition Yposition Zposition Zrotation Xrotation Yrotation 
		JOINT Spine
		{
			OFFSET 15.7357 0.0 0.0
			CHANNELS 6 Xposition Yposition Zposition Zrotation Xrotation Yrotation 
			JOINT Chest
			{
				OFFSET 8.98455 -0.406207 0.0
				CHANNELS 6 Xposition Yposition Zposition Zrotation Xrotation Yrotation 
				JOINT Neck
				{
					OFFSET 16.3773 0.0 0.0
					CHANNELS 6 Xposition Yposition Zposition Zrotation Xrotation Yrotation 
					JOINT Head
					{
						OFFSET 6.45672 0.0 0.0
						CHANNELS 6 Xposition Yposition Zposition Zrotation Xrotation Yrotation 
						End Site
						{
							OFFSET 0.0 0.0 0.0
						}
					}
				}
				JOINT Shoulder_L
				{
					OFFSET 12.9942 -0.242716 4.98039
					CHANNELS 6 Xposition Yposition Zposition Zrotation Xrotation Yrotation 
					JOINT UpperArm_L
					{
						OFFSET 5.34809 0.0 0.0
						CHANNELS 6 Xposition Yposition Zposition Zrotation Xrotation Yrotation 
						JOINT LowerArm_L
						{
							OFFSET 24.3286 1.87007e-05 0.0
							CHANNELS 6 Xposition Yposition Zposition Zrotation Xrotation Yrotation 
							JOINT Hand_L
							{
								OFFSET 22.2916 0.0 0.0
								CHANNELS 6 Xposition Yposition Zposition Zrotation Xrotation Yrotation 
								End Site
								{
									OFFSET 0.0 0.0 0.0
								}
							}
						}
					}
				}
				JOINT Shoulder_R
				{
					OFFSET 12.9945 -0.242716 -4.98039
					CHANNELS 6 Xposition Yposition Zposition Zrotation Xrotation Yrotation 
					JOINT UpperArm_R
					{
						OFFSET -5.34813 0.0 0.0
						CHANNELS 6 Xposition Yposition Zposition Zrotation Xrotation Yrotation 
						JOINT LowerArm_R
						{
							OFFSET -24.3289 0.000322201 0.0
							CHANNELS 6 Xposition Yposition Zposition Zrotation Xrotation Yrotation 
							JOINT Hand_R
							{
								OFFSET -22.2915 -0.000108084 0.0
								CHANNELS 6 Xposition Yposition Zposition Zrotation Xrotation Yrotation 
								End Site
								{
									OFFSET 0.0 0.0 0.0
								}
							}
						}
					}
				}
			}
		}
		JOINT UpperLeg_L
		{
			OFFSET -2.19248 -6.46944 0.0
			CHANNELS 6 Xposition Yposition Zposition Zrotation Xrotation Yrotation 
			JOINT LowerLeg_L
			{
				OFFSET 39.0811 0.0 -1.23785e-05
				CHANNELS 6 Xposition Yposition Zposition Zrotation Xrotation Yrotation 
				JOINT Foot_L
				{
					OFFSET 40.9854 0.0 -1.26872e-05
					CHANNELS 6 Xposition Yposition Zposition Zrotation Xrotation Yrotation 
					JOINT Toes_L
					{
						OFFSET 11.7543 0.0 0.0
						CHANNELS 6 Xposition Yposition Zposition Zrotation Xrotation Yrotation 
						End Site
						{
							OFFSET 0.0 0.0 0.0
						}
					}
				}
			}
		}
		JOINT UpperLeg_R
		{
			OFFSET -2.19251 6.46944 0.0
			CHANNELS 6 Xposition Yposition Zposition Zrotation Xrotation Yrotation 
			JOINT LowerLeg_R
			{
				OFFSET -39.0811 -0.00228153 -0.0401928
				CHANNELS 6 Xposition Yposition Zposition Zrotation Xrotation Yrotation 
				JOINT Foot_R
				{
					OFFSET -40.9854 0.0 0.0
					CHANNELS 6 Xposition Yposition Zposition Zrotation Xrotation Yrotation 
					JOINT Toes_R
					{
						OFFSET -11.7543 0.0 0.0
						CHANNELS 6 Xposition Yposition Zposition Zrotation Xrotation Yrotation 
						End Site
						{
							OFFSET 0.0 0.0 0.0
						}
					}
				}
			}
		}
	}
}
MOTION
Frames:	5
Frame Time:	0.0333333
0.000000 0.000000 0.000000 0.000000 0.000000 -0.000000 -0.093226 84.830100 -61.461200 90.241000 -3.440060 2.670010 15.735700 0.000005 -0.000001 89.704000 82.571300 -90.591400 8.984550 -0.406207 -0.000000 7.091190 -0.071279 -1.768400 16.377300 -0.000001 -0.000001 -2.368770 -3.874930 2.027240 6.456720 -0.000001 -0.000000 -4.426770 -3.897140 2.225170 12.994200 -0.242716 4.980390 -90.867600 3.040880 -74.068500 5.348090 -0.000007 -0.000001 -65.648500 23.093300 -5.214310 24.328600 0.000019 0.000005 1.211080 0.354972 -73.665900 22.291600 -0.000001 0.000005 18.061800 5.486240 -5.988920 12.994500 -0.242716 -4.980390 88.513200 10.348100 -81.777700 -5.348130 -0.000001 -0.000004 -60.714100 27.884500 -5.914480 -24.328900 0.000322 -0.000009 -16.496300 -5.401640 -72.363900 -22.291500 -0.000108 -0.000004 25.449300 5.648510 -14.874400 -2.192480 -6.469440 -0.000000 178.257000 -6.499080 -24.910800 39.081100 -0.000007 -0.000012 -0.480707 0.334516 55.167700 40.985400 -0.000006 -0.000013 1.594510 -3.194290 -78.151400 11.754300 -0.000000 0.000003 -0.000310 -0.002675 -16.677100 -2.192510 6.469440 -0.000001 175.858000 7.782930 156.919000 -39.081100 -0.002282 -0.040193 0.138609 -0.016643 83.020900 -40.985400 0.000008 0.000006 7.555000 -3.447330 -50.488000 -11.754300 -0.000006 -0.000006 -0.016329 -0.146032 -22.533400
0.000000 0.000000 0.000000 0.000000 0.000000 -0.000000 -0.052847 84.711800 -57.276700 89.881000 -2.359550 2.223000 15.735700 0.000005 -0.000001 86.361300 82.567100 -87.029700 8.984550 -0.406207 -0.000000 7.065420 -0.936094 -1.277680 16.377300 -0.000001 -0.000001 -2.167270 -4.107250 1.751870 6.456720 -0.000001 -0.000000 -4.018930 -3.650370 2.019660 12.994200 -0.242716 4.980390 -91.018000 3.791520 -74.959600 5.348090 -0.000007 -0.000001 -62.811700 21.608600 -14.560900 24.328600 0.000019 0.000005 0.231986 0.074823 -72.122000 22.291600 -0.000001 0.000005 18.565100 5.494510 -6.313650 12.994500 -0.242716 -4.980390 88.384100 10.467500 -81.173700 -5.348130 -0.000001 -0.000004 -63.235700 27.806800 -0.946000 -24.328900 0.000322 -0.000009 -16.916400 -6.713160 -68.973400 -22.291500 -0.000108 -0.000004 25.704200 5.645710 -14.619100 -2.192480 -6.469440 -0.000000 178.761000 -6.364450 -22.001100 39.081100 -0.000007 -0.000012 -0.530933 0.370113 55.120900 40.985400 -0.000006 -0.000013 1.677780 -2.573850 -81.416900 11.754300 -0.000000 0.000003 -0.000513 -0.004071 -16.726200 -2.192510 6.469440 -0.000001 177.510000 9.461810 152.442000 -39.081100 -0.002282 -0.040193 0.106460 -0.014184 82.214300 -40.985400 0.000008 0.000006 7.997100 -4.516270 -55.700000 -11.754300 -0.000006 -0.000006 -0.016425 -0.146610 -22.557100
0.000000 0.000000 0.000000 0.000000 0.000000 -0.000000 -0.167534 85.379800 -52.995800 89.363100 -1.253110 1.699320 15.735700 0.000005 -0.000001 82.277400 82.611300 -82.641200 8.984550 -0.406207 -0.000000 6.874240 -1.976310 -0.608090 16.377300 -0.000001 -0.000001 -1.995860 -4.175240 1.550550 6.456720 -0.000001 -0.000000 -3.550990 -3.001360 1.992690 12.994200 -0.242716 4.980390 -90.894800 3.581560 -75.962700 5.348090 -0.000007 -0.000001 -62.407000 19.378300 -21.481900 24.328600 0.000019 0.000005 1.160720 0.392413 -71.323400 22.291600 -0.000001 0.000005 18.846900 5.497470 -6.431540 12.994500 -0.242716 -4.980390 88.285800 10.344800 -80.538200 -5.348130 -0.000001 -0.000004 -65.407800 28.047600 3.989060 -24.328900 0.000322 -0.000009 -18.639900 -7.940730 -67.726500 -22.291500 -0.000108 -0.000004 25.503500 5.644110 -14.476800 -2.192480 -6.469440 -0.000000 179.700000 -6.351750 -17.549500 39.081100 -0.000007 -0.000012 -0.525868 0.412410 51.896000 40.985400 -0.000006 -0.000013 1.718880 -1.610830 -83.116000 11.754300 -0.000000 0.000003 -0.000585 -0.004536 -16.742300 -2.192510 6.469440 -0.000001 179.653000 11.508300 149.432000 -39.081100 -0.002282 -0.040193 0.081870 -0.019119 76.374100 -40.985400 0.000008 0.000006 7.144390 -4.978030 -60.277600 -11.754300 -0.000006 -0.000006 -0.014773 -0.136384 -22.137200
0.000000 0.000000 0.000000 0.000000 0.000000 -0.000000 -0.355650 86.584200 -48.553800 88.777200 -0.651848 1.140820 15.735700 0.000005 -0.000001 77.654100 82.681900 -77.662200 8.984550 -0.406207 -0.000000 6.538980 -3.119740 0.162170 16.377300 -0.000001 -0.000001 -1.908670 -3.905870 1.294160 6.456720 -0.000001 -0.000000 -3.192490 -2.004600 2.005450 12.994200 -0.242716 4.980390 -90.556000 2.302490 -76.420800 5.348090 -0.000007 -0.000001 -63.658900 17.699600 -25.442100 24.328600 0.000019 0.000005 2.434330 0.800380 -71.810200 22.291600 -0.000001 0.000005 19.922700 5.499770 -6.523930 12.994500 -0.242716 -4.980390 88.289500 9.777510 -80.026900 -5.348130 -0.000001 -0.000004 -67.306300 28.650200 8.067460 -24.328900 0.000322 -0.000009 -18.748100 -7.996870 -67.710800 -22.291500 -0.000108 -0.000004 24.690800 5.642550 -14.341500 -2.192480 -6.469440 -0.000000 -179.438000 -6.284560 -11.676600 39.081100 -0.000007 -0.000012 -0.297080 0.288948 45.795600 40.985400 -0.000006 -0.000013 2.802880 -1.627730 -83.431500 11.754300 -0.000000 0.000003 -0.812991 -1.120530 -15.991600 -2.192510 6.469440 -0.000001 -177.981000 13.125500 148.198000 -39.081100 -0.002282 -0.040193 0.051120 -0.021175 66.180000 -40.985400 0.000008 0.000006 6.716250 -3.920540 -62.713700 -11.754300 -0.000006 -0.000006 -0.016680 -0.148150 -22.620400
0.000000 0.000000 0.000000 0.000000 0.000000 -0.000000 -0.519022 87.919700 -44.239200 88.457700 -0.617425 -0.263848 15.735700 0.000005 -0.000001 73.411200 83.052300 -73.097400 8.984550 -0.406207 -0.000000 5.572520 -3.963780 0.820187 16.377300 -0.000001 -0.000001 -2.007150 -3.601480 1.120340 6.456720 -0.000001 -0.000000 -3.054430 -1.195410 1.647460 12.994200 -0.242716 4.980390 -90.291700 1.207560 -76.418100 5.348090 -0.000007 -0.000001 -64.487800 17.166800 -27.138700 24.328600 0.000019 0.000005 1.553660 0.468357 -73.229800 22.291600 -0.000001 0.000005 21.166400 5.506180 -6.784030 12.994500 -0.242716 -4.980390 88.361000 9.042240 -79.681300 -5.348130 -0.000001 -0.000004 -68.848600 28.891900 11.046500 -24.328900 0.000322 -0.000009 -18.050000 -7.475200 -68.235800 -22.291500 -0.000108 -0.000004 23.686200 5.642740 -14.357800 -2.192480 -6.469440 -0.000000 -179.161000 -6.037600 -8.456700 39.081100 -0.000007 -0.000012 0.006187 -0.006977 41.556900 40.985400 -0.000006 -0.000013 4.177130 -1.980200 -78.958400 11.754300 -0.000000 0.000003 -1.872240 -2.395600 -18.721300 -2.192510 6.469440 -0.000001 -175.670000 14.531600 147.379000 -39.081100 -0.002282 -0.040193 0.027851 -0.018622 52.890900 -40.985400 0.000008 0.000006 5.498400 -1.730990 -62.674100 -11.754300 -0.000006 -0.000006 -0.017436 -0.152648 -22.805300
